<svg width="136" height="26" viewBox="0 0 136 26" fill="none" xmlns="http://www.w3.org/2000/svg">
<path d="M87.2217 0.707123L94.6057 0.734313L99.1477 13.1635C99.814 14.9721 100.14 16.8759 100.14 18.8069V18.8477C100.14 19.0517 100.304 19.2149 100.508 19.2149C100.712 19.2149 100.888 19.0517 100.888 18.8477C100.875 16.9031 101.215 14.9721 101.895 13.1363L106.437 0.720718L113.821 0.747925L106.518 20.2348C105.58 22.7369 103.2 24.3824 100.535 24.3824C97.8694 24.3824 95.4761 22.7233 94.5377 20.2348L87.2217 0.707123Z" fill="white"/>
<path d="M50.2878 0C43.3525 0 37.7226 5.62982 37.7226 12.5651C37.7226 19.5004 43.3525 25.1303 50.2878 25.1303C57.2231 25.1303 62.8529 19.5004 62.8529 12.5651C62.8529 5.62982 57.2231 0 50.2878 0ZM50.2878 19.2149C46.6161 19.2149 43.638 16.2368 43.638 12.5651C43.638 8.8935 46.6161 5.91541 50.2878 5.91541C53.9594 5.91541 56.9375 8.8935 56.9375 12.5651C56.9375 16.2368 53.9594 19.2149 50.2878 19.2149Z" fill="white"/>
<path d="M76.8867 0C69.9514 0 64.3216 5.62982 64.3216 12.5651C64.3216 19.5004 69.9514 25.1303 76.8867 25.1303C83.822 25.1303 89.4518 19.5004 89.4518 12.5651C89.4518 5.62982 83.8356 0 76.8867 0ZM76.8867 19.2149C73.2151 19.2149 70.237 16.2368 70.237 12.5651C70.237 8.8935 73.2151 5.91541 76.8867 5.91541C80.5583 5.91541 83.5364 8.8935 83.5364 12.5651C83.5364 16.2368 80.5583 19.2149 76.8867 19.2149Z" fill="white"/>
<path d="M115.303 0.734313V6.64972H121.164C123.163 6.64972 125.162 6.40496 127.093 5.91541C127.12 5.91541 127.134 5.9018 127.161 5.9018C127.419 5.9018 127.555 6.21458 127.365 6.40496L115.303 18.4669V24.3824H136V18.4669H130.139C128.14 18.4669 126.141 18.7117 124.21 19.2013C124.183 19.2013 124.169 19.2149 124.142 19.2149H124.101C123.843 19.2149 123.707 18.9021 123.897 18.7117L136 6.64972V0.734313H115.303Z" fill="white"/>
<path d="M21.989 5.28986L19.1197 13.1363C18.4534 14.9585 18.1134 16.8895 18.1134 18.8477C18.1134 19.0517 17.9502 19.2149 17.7326 19.2149C17.5286 19.2149 17.3655 19.0517 17.3655 18.8477V18.8069C17.3655 16.8895 17.0255 14.9721 16.3728 13.1635L13.4899 5.28986C12.4836 2.55653 9.88621 0.720718 6.9625 0.720718C3.11409 0.720718 0 3.83482 0 7.68323V24.3824H5.91541V7.39765C5.91541 6.60893 7.0169 6.40496 7.28887 7.15288L12.3476 20.6563C13.1907 22.9001 15.3393 24.3959 17.7326 24.3959C20.126 24.3959 22.2746 22.9137 23.1177 20.6563L28.2172 7.04409C28.4892 6.30976 29.5906 6.50015 29.5906 7.28887V24.3959H35.5332V7.68323C35.5332 3.83482 32.4192 0.720718 28.5707 0.720718H28.5163C25.6062 0.720718 22.9953 2.55653 21.989 5.28986Z" fill="white"/>
</svg>
